#N canvas 643 217 890 662 12;
#X floatatom 110 97 5 0 0 0 - - - 0;
#X floatatom 196 99 5 0 0 0 - - - 0;
#X floatatom 284 94 5 0 0 0 - - - 0;
#X obj 108 125 expr ($f1 + $f2 + $f3) / 2;
#X text 395 18 rx0 rx1 rx2 rx3;
#X text 104 71 tag_pos(a \, b \, c);
#X text 90 126 p;
#X text 87 186 s;
#X obj 106 154 expr ($f1 * ($f1 - $f2) * ($f1 - $f3) * ($f1 - $f4))
;
#X obj 106 184 sqrt;
#X obj 109 227 expr 2 * $f1 / $f2;
#X obj 110 265 expr ($f2 * $f2 - $f1 * $f1);
#X text 148 311 cos_a;
#X obj 112 308 sqrt;
#X obj 197 312 expr ($f2 * $f2 + $f3 * $f3 - $f1 * $f1)/(2*$f2*$f3)
;
#X obj 122 410 expr $f2 * $f1;
#X text 91 410 x;
#X obj 300 417 *;
#X obj 325 363 expr (1 - $f1 * $f1);
#X obj 325 388 sqrt;
#X text 284 419 y;
#X text 89 228 y;
#X text 92 312 x;
#X floatatom 120 492 5 0 0 0 - - - 0;
#X floatatom 295 486 5 0 0 0 - - - 0;
#X floatatom 174 496 5 0 0 0 - - - 0;
#X floatatom 343 489 5 0 0 0 - - - 0;
#X text 486 89 Built on the code from https://github.com/Makerfabs/Makerfabs-ESP32-UWB/blob/main/example/IndoorPositioning/uwb_position_display.py
Includes commented out math;
#X connect 0 0 3 0;
#X connect 0 0 8 1;
#X connect 0 0 14 0;
#X connect 1 0 3 1;
#X connect 1 0 8 2;
#X connect 1 0 11 1;
#X connect 1 0 14 1;
#X connect 1 0 15 1;
#X connect 1 0 17 0;
#X connect 2 0 3 2;
#X connect 2 0 8 3;
#X connect 2 0 10 1;
#X connect 2 0 14 2;
#X connect 3 0 8 0;
#X connect 8 0 9 0;
#X connect 9 0 10 0;
#X connect 10 0 11 0;
#X connect 10 0 26 0;
#X connect 11 0 13 0;
#X connect 13 0 25 0;
#X connect 14 0 15 0;
#X connect 14 0 18 0;
#X connect 15 0 23 0;
#X connect 17 0 24 0;
#X connect 18 0 19 0;
#X connect 19 0 17 1;
