#N canvas 643 217 890 662 12;
#X floatatom 52 57 5 0 0 0 - - - 0;
#X floatatom 200 53 5 0 0 0 - - - 0;
#X floatatom 382 56 5 0 0 0 - - - 0;
#X text 395 18 rx0 rx1 rx2 rx3;
#X text 53 24 tag_pos(a \, b \, c);
#X text 4 103 cos_a;
#X obj 53 104 expr ($f2 * $f2 + $f3 * $f3 - $f1 * $f1)/(2*$f2*$f3)
;
#X obj 47 198 expr $f2 * $f1;
#X text 16 198 x;
#X obj 169 255 *;
#X obj 171 161 expr (1 - $f1 * $f1);
#X obj 171 208 sqrt;
#X text 148 300 y;
#X floatatom 45 280 5 0 0 0 - - - 0;
#X floatatom 168 300 5 0 0 0 - - - 0;
#X text 499 70 Built on the code from https://github.com/Makerfabs/Makerfabs-ESP32-UWB/blob/main/example/IndoorPositioning/uwb_position_display.py
Streamlined;
#X obj 383 80 t b f;
#X obj 112 173 t b f;
#X obj 200 76 t b f;
#X obj 171 233 t b f;
#X obj 171 183 abs;
#X connect 0 0 6 0;
#X connect 1 0 9 0;
#X connect 1 0 17 0;
#X connect 1 0 18 0;
#X connect 2 0 16 0;
#X connect 6 0 7 0;
#X connect 6 0 10 0;
#X connect 7 0 13 0;
#X connect 9 0 14 0;
#X connect 10 0 20 0;
#X connect 11 0 19 0;
#X connect 16 0 6 0;
#X connect 16 1 6 2;
#X connect 17 0 7 0;
#X connect 17 1 7 1;
#X connect 18 0 6 0;
#X connect 18 1 6 1;
#X connect 19 0 9 0;
#X connect 19 1 9 1;
#X connect 20 0 11 0;
