#N canvas 501 194 1179 616 12;
#X floatatom 52 261 5 0 0 0 - - - 0;
#X floatatom 200 257 5 0 0 0 - - - 0;
#X floatatom 382 260 5 0 0 0 - - - 0;
#X text 500 257 rx0 rx1 rx2 rx3;
#X text 4 307 cos_a;
#X obj 53 308 expr ($f2 * $f2 + $f3 * $f3 - $f1 * $f1)/(2*$f2*$f3)
;
#X obj 47 402 expr $f2 * $f1;
#X text 29 482 x;
#X obj 169 437 *;
#X obj 171 365 expr (1 - $f1 * $f1);
#X obj 171 390 sqrt;
#X text 148 482 y;
#X floatatom 45 484 5 0 0 0 - - - 0;
#X floatatom 168 482 5 0 0 0 - - - 0;
#X text 499 274 Built on the code from https://github.com/Makerfabs/Makerfabs-ESP32-UWB/blob/main/example/IndoorPositioning/uwb_position_display.py
Streamlined;
#X obj 383 284 t b f;
#X obj 112 377 t b f;
#X obj 200 280 t b f;
#X obj 171 415 t b f;
#X obj 42 525 pack 0 0;
#X obj 39 548 list prepend 0;
#X msg 373 609 speakers -0.5 0.86 0.5 0.86 0.86 0.5 0.86 -0.5 0.5 -0.86
-0.5 -0.86 -0.86 -0.5 -0.86 0.5;
#X obj 38 613 route 0;
#X obj 36 647 route 0 1 2 3 4 5 6 7;
#X obj 34 685 sig~;
#X obj 72 686 sig~;
#X obj 109 685 sig~;
#X obj 147 686 sig~;
#X obj 186 686 sig~;
#X obj 224 687 sig~;
#X obj 261 686 sig~;
#X obj 299 687 sig~;
#X obj 34 728 *~;
#X obj 74 729 *~;
#X obj 113 729 *~;
#X obj 150 730 *~;
#X obj 190 731 *~;
#X obj 229 731 *~;
#X obj 271 731 *~;
#X obj 310 731 *~;
#X obj 438 694 phasor~ 2;
#X obj 442 727 *~;
#X obj 513 693 osc~ 100;
#X obj 32 793 dac~ 3 4 5 6 7 8 9 10;
#X msg 47 89 listen 1234;
#X obj 47 55 loadbang;
#X obj 385 209 loadbang;
#X msg 383 233 1;
#X obj 37 578 dbap2d 1;
#X obj 47 113 netreceive -u -b;
#X obj 44 136 oscparse;
#X obj 47 184 route rx0 rx2;
#X obj 48 162 route list;
#X connect 0 0 5 0;
#X connect 1 0 8 0;
#X connect 1 0 16 0;
#X connect 1 0 17 0;
#X connect 2 0 15 0;
#X connect 5 0 6 0;
#X connect 5 0 9 0;
#X connect 6 0 12 0;
#X connect 8 0 13 0;
#X connect 9 0 10 0;
#X connect 10 0 18 0;
#X connect 12 0 19 0;
#X connect 13 0 19 1;
#X connect 15 0 5 0;
#X connect 15 1 5 2;
#X connect 16 0 6 0;
#X connect 16 1 6 1;
#X connect 17 0 5 0;
#X connect 17 1 5 1;
#X connect 18 0 8 0;
#X connect 18 1 8 1;
#X connect 19 0 20 0;
#X connect 20 0 48 0;
#X connect 21 0 48 0;
#X connect 22 0 23 0;
#X connect 23 0 24 0;
#X connect 23 1 25 0;
#X connect 23 2 26 0;
#X connect 23 3 27 0;
#X connect 23 4 28 0;
#X connect 23 5 29 0;
#X connect 23 6 30 0;
#X connect 23 7 31 0;
#X connect 24 0 32 0;
#X connect 25 0 33 0;
#X connect 26 0 34 0;
#X connect 27 0 35 0;
#X connect 28 0 36 0;
#X connect 29 0 37 0;
#X connect 30 0 38 0;
#X connect 31 0 39 0;
#X connect 32 0 43 0;
#X connect 33 0 43 1;
#X connect 34 0 43 2;
#X connect 35 0 43 3;
#X connect 36 0 43 4;
#X connect 37 0 43 5;
#X connect 38 0 43 6;
#X connect 39 0 43 7;
#X connect 40 0 41 0;
#X connect 41 0 39 1;
#X connect 41 0 38 1;
#X connect 41 0 36 1;
#X connect 41 0 35 1;
#X connect 41 0 34 1;
#X connect 41 0 33 1;
#X connect 41 0 32 1;
#X connect 42 0 41 1;
#X connect 44 0 49 0;
#X connect 45 0 44 0;
#X connect 46 0 47 0;
#X connect 47 0 2 0;
#X connect 48 0 22 0;
#X connect 49 0 50 0;
#X connect 50 0 52 0;
#X connect 51 0 0 0;
#X connect 51 1 1 0;
#X connect 52 0 51 0;
